<?xml version="1.0" encoding="utf-8"?>
<!-- Generator: Adobe Illustrator 18.1.0, SVG Export Plug-In . SVG Version: 6.00 Build 0)  -->
<!DOCTYPE svg PUBLIC "-//W3C//DTD SVG 1.1//EN" "http://www.w3.org/Graphics/SVG/1.1/DTD/svg11.dtd">
<svg version="1.1" xmlns="http://www.w3.org/2000/svg" xmlns:xlink="http://www.w3.org/1999/xlink" x="0px" y="0px"
	 viewBox="0 0 778 164" enable-background="new 0 0 778 164" xml:space="preserve">
<g id="bg" display="none">
	<rect x="-65" y="-59" display="inline" width="1012" height="271"/>
</g>
<g id="logo">
	<polygon fill="#FFFFFF" points="370,33 364,33 364,124.9 325,33 319,33 319,141 325,141 325,49.1 364,141 364,141 364,141 364,141 
		364.1,141 370,141 	"/>
	<polygon fill="#FFFFFF" points="79,33 79,135 37,135 37,116 31,116 31,135 31,141 37,141 79,141 85,141 85,135 85,33 	"/>
	<polygon fill="#FFFFFF" points="232,39 232,33 178,33 178,35 178,39 178,83 178,88 178,89 226,89 226,135 178,135 178,141 226,141 
		232,141 232,135 232,89 232,88 232,83 184,83 184,39 	"/>
	<path fill="#FFFFFF" d="M296,33h-39h-6v6v96v6h6h39h6v-6V39v-6H296z M296,135h-39V39h39V135z"/>
	<polygon fill="#FFFFFF" points="159.1,141 135,33 135,33 129,33 129,33 129,33 104.8,141 111,141 132,47 153,141 	"/>
	<polygon fill="#FFFFFF" points="431,135 431,39 476,39 476,33 431,33 425,33 425,39 425,135 425,141 431,141 476,141 476,135 	"/>
	<polygon fill="#FFFFFF" points="712,135 712,33 706,33 706,135 706,141 712,141 757,141 757,135 	"/>
	<polygon fill="#FFFFFF" points="683.1,33 663,80 642.9,33 637,33 660,87 660,141 666,141 666,87 666,87 689,33 	"/>
	<polygon fill="#FFFFFF" points="552.1,141 528,33 528,33 522,33 522,33 522,33 497.8,141 504,141 525,47 546,141 	"/>
	<path fill="#FFFFFF" d="M625.9,60l0-0.1L578,33v0h-6v108h6V98.2l39.3,42.8h8.7l-48-51.6l0,0v-0.1L626,65h0L625.9,60L625.9,60z
		 M578,39.9l40.3,22.4L578,82.7V39.9z"/>
</g>
</svg>
